<?xml version="1.0" encoding="UTF-8" standalone="no"?>
<!-- Created with Inkscape (http://www.inkscape.org/) -->

<svg
   width="183.18102mm"
   height="109.28243mm"
   viewBox="0 0 183.18101 109.28244"
   version="1.1"
   id="svg5"
   sodipodi:docname="cranker_logo_2.svg"
   inkscape:version="1.1.2 (0a00cf5339, 2022-02-04)"
   xmlns:inkscape="http://www.inkscape.org/namespaces/inkscape"
   xmlns:sodipodi="http://sodipodi.sourceforge.net/DTD/sodipodi-0.dtd"
   xmlns="http://www.w3.org/2000/svg"
   xmlns:svg="http://www.w3.org/2000/svg">
  <sodipodi:namedview
     id="namedview7"
     pagecolor="#ffffff"
     bordercolor="#666666"
     borderopacity="1.0"
     inkscape:pageshadow="2"
     inkscape:pageopacity="0.0"
     inkscape:pagecheckerboard="0"
     inkscape:document-units="mm"
     showgrid="false"
     inkscape:snap-bbox="false"
     inkscape:snap-global="false"
     showguides="false"
     inkscape:zoom="0.70710678"
     inkscape:cx="660.43773"
     inkscape:cy="361.33157"
     inkscape:window-width="1920"
     inkscape:window-height="955"
     inkscape:window-x="0"
     inkscape:window-y="32"
     inkscape:window-maximized="1"
     inkscape:current-layer="layer12"
     inkscape:lockguides="false"
     units="mm"
     height="79mm"
     fit-margin-left="1.5"
     lock-margins="true"
     fit-margin-top="1.5"
     fit-margin-right="1.5"
     fit-margin-bottom="1.5" />
  <defs
     id="defs2" />
  <g
     inkscape:groupmode="layer"
     id="layer12"
     inkscape:label="Font"
     style="display:inline"
     transform="translate(-143.24946,46.39864)">
    <g
       aria-label="cranker"
       id="text1908"
       style="font-size:56.4444px;fill:#26539e;stroke-width:0.264583">
      <path
         d="m 168.32028,37.90204 q 0,0.02756 0.0276,0.02756 0.79926,0.799261 0.79926,1.956813 0,1.12999 -0.82682,1.956812 -0.79926,0.799262 -1.92925,0.799262 -1.15755,0 -1.95682,-0.826822 h -0.0276 q -2.37022,-2.370224 -5.76019,-2.370224 -3.38997,0 -5.78776,2.397784 -2.39778,2.370224 -2.39778,5.760196 0,3.389971 2.39778,5.787756 2.39779,2.397784 5.78776,2.397784 3.36241,0 5.76019,-2.370224 0.0276,-0.02756 0.0551,-0.05512 0.79927,-0.799262 1.95682,-0.799262 1.15755,0 1.98437,0.826823 0.82682,0.799261 0.82682,1.956812 0,1.157551 -0.82682,1.984374 -0.0276,0.02756 -0.0551,0.05512 -3.99631,3.996308 -9.70138,3.996308 -5.70508,0 -9.72894,-4.023869 -4.02387,-4.023868 -4.02387,-9.728942 0,-5.705073 4.02387,-9.728942 4.02386,-4.023868 9.72894,-4.023868 5.70507,0 9.70138,3.996307 z"
         id="path1643" />
      <path
         d="m 187.11163,33.82305 q 1.15755,0 1.98438,0.826823 0.82682,0.826822 0.82682,1.984373 0,1.157551 -0.82682,1.984374 -0.82683,0.826822 -1.98438,0.826822 h -0.0276 q -3.38997,0 -5.78775,2.397784 -2.20486,2.177299 -2.37023,5.208981 0.0276,0.248046 0.0276,0.496093 v 10.638447 q 0,1.543401 -0.82682,2.370224 -0.82682,0.826822 -1.98437,0.826822 -1.15755,0 -1.98438,-0.826822 -0.82682,-0.826823 -0.82682,-2.425346 V 47.493179 q 0.0551,-5.622392 4.02387,-9.591139 3.80338,-3.803382 9.7565,-4.07899 z"
         id="path1645" />
      <path
         d="m 211.4105,41.843226 q -2.39778,-2.397784 -5.78775,-2.397784 -3.38998,0 -5.78776,2.397784 -2.37022,2.370224 -2.37022,5.760196 0,3.389971 2.37022,5.787756 2.39778,2.397784 5.78776,2.397784 3.38997,0 5.78775,-2.397784 2.0395,-2.039495 2.34266,-4.79557 V 47.5483 q 0,-0.248047 0.0276,-0.496093 -0.16537,-3.031682 -2.37023,-5.208981 z m 7.96506,16.839614 q 0,1.598523 -0.82683,2.149738 -0.82682,0.551215 -1.98437,0.551215 -1.15755,0 -1.98437,-0.551215 -0.82683,-0.551215 -0.82683,-2.094616 -3.52777,2.645831 -8.13041,2.645831 -5.70508,0 -9.72895,-4.023869 -4.02386,-4.023868 -4.02386,-9.728942 0,-5.705073 4.02386,-9.728942 4.02387,-4.023868 9.72895,-4.023868 5.70507,0 9.72894,4.023868 3.96874,3.968747 4.02387,9.591139 z"
         id="path1647" />
      <path
         d="m 237.40447,33.82305 q 5.81532,0.330729 9.56358,4.07899 3.96875,3.968747 4.02387,9.591139 v 10.638446 q 0,1.598523 -0.82682,2.425346 -0.82683,0.826822 -1.98438,0.826822 -1.15755,0 -1.98437,-0.826822 -0.82682,-0.826823 -0.82682,-2.370224 V 47.5483 q 0,-0.248047 0.0276,-0.496093 -0.16537,-3.031682 -2.37023,-5.208981 -2.39778,-2.397784 -5.78775,-2.397784 h -0.11025 q -3.38997,0 -5.78775,2.397784 -2.20486,2.177299 -2.37023,5.208981 0.0276,0.248046 0.0276,0.496093 v 10.638447 q 0,1.543401 -0.82683,2.370224 -0.82682,0.826822 -1.98437,0.826822 -1.15755,0 -1.98437,-0.826822 -0.82683,-0.826823 -0.82683,-2.425346 V 47.493179 q 0.0551,-5.622392 4.02387,-9.591139 3.74826,-3.748261 9.56358,-4.07899 z"
         id="path1649" />
      <path
         d="m 261.211,51.269 v 7.303597 q 0,1.157551 -0.82682,1.984374 -0.82682,0.826822 -1.98438,0.826822 -1.15755,0 -1.98437,-0.826822 -0.82682,-0.826823 -0.82682,-1.984374 V 28.531388 q 0,-1.157551 0.82682,-1.984374 0.82682,-0.826822 1.98437,-0.826822 1.15756,0 1.98438,0.826822 0.82682,0.826823 0.82682,1.984374 v 15.434016 l 11.9338,-9.536017 q 0.74414,-0.606337 1.73633,-0.606337 1.15755,0 1.95681,0.826823 0.79926,0.799261 0.79926,1.929252 0,1.157551 -0.79926,1.956812 -0.24805,0.248047 -0.52365,0.413411 l -10.74869,8.598952 11.13454,8.90212 -0.0551,0.05512 q 0.11024,0.08268 0.19292,0.165365 0.79926,0.826822 0.79926,1.956813 0,1.157551 -0.79926,1.956812 -0.79926,0.799262 -1.95681,0.799262 -0.96463,0 -1.68121,-0.578776 l -0.0276,0.02756 z"
         id="path1651" />
      <path
         d="m 297.91969,40.13446 q -1.51584,-0.689018 -3.33485,-0.689018 -3.38997,0 -5.78775,2.397784 -2.39779,2.370224 -2.39779,5.760196 0,3.389971 2.39779,5.787756 2.39778,2.397784 5.78775,2.397784 3.36241,0 5.7602,-2.370224 0.0276,-0.02756 0.0551,-0.05512 0.79926,-0.799262 1.95681,-0.799262 1.15755,0 1.98438,0.826823 0.82682,0.799261 0.82682,1.956812 0,1.157551 -0.82682,1.984374 -0.0276,0.02756 -0.0551,0.05512 -3.9963,3.996308 -9.70138,3.996308 -5.70507,0 -9.72894,-4.023869 -4.02387,-4.023868 -4.02387,-9.728942 0,-5.705073 4.02387,-9.728942 4.02387,-4.023868 9.72894,-4.023868 5.70508,0 9.70138,3.996307 l -0.0276,0.02756 q 0,0.02756 0.0276,0.02756 0.79927,0.799261 0.79927,1.956813 0,1.12999 -0.79927,1.929252 l -7.88237,7.827251 q -0.82682,0.799261 -1.98437,0.799261 -1.18511,0 -2.01194,-0.799261 -0.79926,-0.826823 -0.79926,-2.011935 0,-1.157551 0.79926,-1.984373 z"
         id="path1653" />
      <path
         d="m 321.97317,33.82305 q 1.15755,0 1.98437,0.826823 0.82682,0.826822 0.82682,1.984373 0,1.157551 -0.82682,1.984374 -0.82682,0.826822 -1.98437,0.826822 h -0.0276 q -3.38997,0 -5.78776,2.397784 -2.20486,2.177299 -2.37022,5.208981 0.0276,0.248046 0.0276,0.496093 v 10.638447 q 0,1.543401 -0.82682,2.370224 -0.82683,0.826822 -1.98438,0.826822 -1.15755,0 -1.98437,-0.826822 -0.82682,-0.826823 -0.82682,-2.425346 V 47.493179 q 0.0551,-5.622392 4.02386,-9.591139 3.80339,-3.803382 9.75651,-4.07899 z"
         style="-inkscape-font-specification:'Neon 80s'"
         id="path1655" />
    </g>
  </g>
  <g
     inkscape:groupmode="layer"
     id="layer13"
     inkscape:label="Font 1"
     transform="translate(-143.24946,46.39864)" />
  <g
     inkscape:groupmode="layer"
     id="layer11"
     inkscape:label="クランクベイト"
     style="display:inline"
     transform="translate(-143.24946,46.39864)">
    <g
       inkscape:groupmode="layer"
       id="layer9"
       inkscape:label="リング_1"
       style="display:inline">
      <path
         style="fill:none;stroke:#6d6a69;stroke-width:2.2948;stroke-linecap:butt;stroke-linejoin:miter;stroke-miterlimit:4;stroke-dasharray:none;stroke-opacity:1"
         d="m 215.83481,16.323817 c -1.6485,2.216083 -0.66127,3.990305 0.43764,5.504097 1.09891,1.513792 3.5161,2.170106 5.26463,2.190569 1.74855,0.02042 3.19348,-0.646406 4.10324,-1.090448 3.5462,-1.793333 3.19076,-7.271972 0.99695,-8.932586 -2.28661,-1.613394 -9.15393,0.112324 -10.80246,2.328368 z"
         id="path58612"
         sodipodi:nodetypes="zzzccz" />
    </g>
    <g
       inkscape:groupmode="layer"
       id="layer10"
       inkscape:label="リップ"
       style="display:inline">
      <path
         style="fill:none;stroke:#6d6a69;stroke-width:2.43555;stroke-linecap:round;stroke-linejoin:miter;stroke-miterlimit:4;stroke-dasharray:none;stroke-opacity:1"
         d="m 175.52607,0.39348764 c 0,0 -2.28501,1.46470796 -5.65903,3.96523336 -3.14087,2.3277186 -7.25173,5.5996978 -10.656,8.206214 -2.77709,2.126293 -5.14726,3.962004 -6.78927,5.214979 -4.93322,3.764442 -5.61585,4.987983 -6.12238,5.63127 -0.50653,0.643288 -0.48683,1.649809 0.25599,2.38326 5.0714,3.283626 11.9169,-1.767336 15.90748,-3.887171 3.29303,-1.869298 8.24548,-5.281821 10.88643,-7.060763 2.64095,-1.778942 3.66203,-2.594871 5.00657,-3.220812 1.34456,-0.625942 3.52215,-0.519951 3.52215,-0.519951 l 2.46133,-0.04429"
         id="path93392"
         sodipodi:nodetypes="cssszcczzcc" />
    </g>
    <g
       inkscape:groupmode="layer"
       id="g60936"
       inkscape:label="リング"
       style="display:inline">
      <path
         style="fill:none;stroke:#6d6a69;stroke-width:2.2948;stroke-linecap:butt;stroke-linejoin:miter;stroke-miterlimit:4;stroke-dasharray:none;stroke-opacity:1"
         d="m 163.64385,-7.183197 c -1.11941,2.3094764 -0.98511,3.9928867 0.11385,5.5066782 1.09891,1.51379134 3.5161,2.17010524 5.26464,2.19056939 1.74854,0.0204226 3.19347,-0.64640613 4.10324,-1.0904481 3.54619,-1.79333409 3.19075,-7.27197209 0.99695,-8.93258789 -1.56982,-1.1076416 -5.2986,-0.6414936 -8.01552,0.4766497 -1.24056,0.5105544 -2.08546,1.0700267 -2.4631,1.8491387 z"
         id="path60934"
         sodipodi:nodetypes="szzccss" />
      <path
         style="fill:none;stroke:#6d6a69;stroke-width:2.2948;stroke-linecap:butt;stroke-linejoin:miter;stroke-miterlimit:4;stroke-dasharray:none;stroke-opacity:1"
         d="m 311.64262,-17.383206 c -1.11941,2.309477 -0.98511,3.992886 0.11385,5.506678 1.0989,1.513792 3.5161,2.170105 5.26464,2.1905695 1.74855,0.020423 3.19347,-0.6464065 4.10324,-1.0904485 3.5462,-1.793333 3.19076,-7.271972 0.99695,-8.932586 -1.56982,-1.107643 -5.2986,-0.641494 -8.01551,0.476649 -1.24058,0.510554 -2.08547,1.070025 -2.46311,1.849138 z"
         id="path60934-6"
         sodipodi:nodetypes="szzccss" />
    </g>
    <g
       inkscape:groupmode="layer"
       id="layer4"
       inkscape:label="ボティ"
       style="display:inline">
      <g
         id="path85"
         transform="matrix(1.3799123,0,0,1.3799123,107.32508,-203.11907)">
        <path
           style="color:#000000;fill:#1496ea;stroke-width:2.165;stroke-miterlimit:4;stroke-dasharray:none;paint-order:fill markers stroke"
           d="m 52.644028,152.75114 c 0,0 4.77556,3.85417 11.787115,5.30779 5.842731,1.2113 11.680689,1.94445 15.048202,1.81863 8.650852,-0.32322 29.606415,-9.57315 33.825365,-11.94855 2.13699,-1.20319 10.05231,-2.33707 15.92397,-2.72374 7.78694,-0.5128 15.03517,-0.90466 16.83484,-1.3652 3.35087,-0.8575 6.19656,-8.11105 1.77935,-13.3602 -2.4811,-2.94839 -27.46402,-13.1403 -42.71194,-14.4232 -14.157962,-1.19119 -18.970654,0.0158 -22.140005,0.26591 -12.531137,-0.81004 -48.086131,18.66155 -30.346897,36.42856 z"
           id="path85203"
           sodipodi:nodetypes="cssssssscc" />
        <path
           style="color:#000000;fill:#26539e;stroke:none;stroke-width:6.1;stroke-miterlimit:4;stroke-dasharray:none;paint-order:stroke fill markers"
           d="m 96.146484,114.67969 c -7.560327,-0.14942 -10.961696,0.58509 -13.224609,0.76367 -12.157589,1.8492 -22.776079,5.71948 -31.355485,14.58836 -3.708466,3.93841 -5.089019,7.80248 -5.144531,11.19922 -0.111024,6.79348 4.814634,11.45411 5.638672,12.18164 l 0.01367,0.0137 0.01563,0.0117 c 0,0 4.924938,3.98593 12.162109,5.48633 5.887834,1.22065 11.726408,1.96795 15.259766,1.83594 4.612733,-0.17235 11.980901,-2.60117 18.861328,-5.26368 6.880426,-2.6625 13.138186,-5.54493 15.365236,-6.79882 0.76587,-0.43121 3.32336,-1.08771 6.26953,-1.56446 2.94618,-0.47674 6.37397,-0.85555 9.2793,-1.04687 3.89026,-0.25619 7.64827,-0.48282 10.66797,-0.70313 3.0197,-0.22031 5.21086,-0.40159 6.32812,-0.6875 2.19629,-0.56204 3.81316,-2.88651 4.44336,-5.69531 0.6302,-2.8088 0.18867,-6.23866 -2.20898,-9.08789 -0.46439,-0.55185 -1.16088,-1.02121 -2.14649,-1.60547 -0.98561,-0.58426 -2.24502,-1.23832 -3.72656,-1.94141 -2.96307,-1.40618 -6.81468,-3.00406 -11.06836,-4.55078 -8.50735,-3.09343 -18.59271,-5.98227 -26.37109,-6.63672 -3.55606,-0.29919 -6.53849,-0.44824 -9.058599,-0.49804 z m -0.0039,1.76172 c 2.463235,0.0511 5.391146,0.19773 8.914066,0.49414 7.46952,0.62845 17.49967,3.47677 25.91602,6.53711 4.20817,1.53017 8.02048,3.11415 10.91601,4.48828 1.44777,0.68706 2.66693,1.32277 3.58203,1.86523 0.91511,0.54246 1.54138,1.03741 1.69727,1.22266 2.01955,2.39991 2.36395,5.21982 1.83789,7.56445 -0.52606,2.34463 -2.00558,4.07563 -3.16016,4.37109 -0.6824,0.17463 -3.01847,0.41972 -6.01953,0.63868 -3.00106,0.21895 -6.75957,0.44456 -10.65625,0.70117 -2.96632,0.19534 -6.43167,0.57874 -9.44531,1.0664 -3.01364,0.48767 -5.4824,0.99756 -6.85352,1.76954 -1.99189,1.12149 -8.31997,4.05234 -15.134766,6.68945 -6.814791,2.63711 -14.250953,4.99561 -18.289062,5.14648 -3.201662,0.11963 -9.040274,-0.59883 -14.837891,-1.80078 -6.766862,-1.40289 -11.36668,-5.09832 -11.392578,-5.11914 -0.5882,-0.52095 -5.125529,-4.92807 -5.029297,-10.8164 0.04821,-2.95023 1.196727,-6.33525 4.664062,-10.01758 6.218427,-5.70403 12.694111,-9.33232 19.267373,-11.57024 7.95931,-2.70981 16.061686,-3.38107 24.023643,-3.23054 z"
           id="path112242"
           sodipodi:nodetypes="cccscccsssssssssssssscccsssssssssssssscscsc" />
      </g>
      <path
         style="fill:#f5f5f5;fill-opacity:1;stroke:#f5f5f5;stroke-width:5.05737;stroke-linecap:round;stroke-linejoin:miter;stroke-miterlimit:4;stroke-dasharray:none;stroke-opacity:1"
         d="m 225.67544,-7.7963745 c 0,0 0.45857,-13.6544685 0.28291,-15.1800985 -0.0667,-0.579481 -1.60922,0.410606 -3.37099,1.965533 -2.87657,2.538859 -6.33773,6.583575 -4.91396,7.760751 2.29575,1.898138 7.82054,5.4928789 7.82054,5.4928789"
         id="path85275"
         sodipodi:nodetypes="csssc" />
    </g>
    <g
       inkscape:groupmode="layer"
       id="layer5"
       inkscape:label="リップ"
       style="display:inline">
      <path
         style="fill:#f5f5f5;fill-opacity:1;stroke:#f5f5f5;stroke-width:0.365677;stroke-linecap:round;stroke-linejoin:bevel;stroke-miterlimit:4;stroke-dasharray:none;stroke-opacity:1"
         d="m 182.15364,10.718198 c -1.39654,-0.145898 -3.73042,-0.0298 -4.45392,0.432327 -19.30759,12.331393 -18.03168,11.5886 -22.76044,13.729051 -4.90628,2.22079 -7.31105,0.839319 -7.72356,0.313241 0,0 -0.57406,-0.671811 -0.4821,-0.991137 0.14862,-0.516059 0.84741,-1.243135 3.30166,-3.311071 3.40687,-2.870591 18.42364,-14.4262248 18.42364,-14.4262248 l 5.47685,-4.3465995 -0.4892,-1.72128888 c 0,0 2.83994,0.24787368 4.39749,1.41853608 1.55755,1.1706624 3.65638,4.8379311 4.16863,6.4366837 0.51227,1.5987527 0.10916,2.4017654 0.10916,2.4017654"
         id="path3248"
         sodipodi:nodetypes="csscssccczzc" />
    </g>
    <g
       inkscape:groupmode="layer"
       id="layer8"
       inkscape:label="目"
       style="display:inline">
      <circle
         style="display:inline;opacity:1;fill:#ffffff;fill-opacity:1;fill-rule:evenodd;stroke-width:0.539936"
         id="path24669-3"
         cx="188.59329"
         cy="-18.409233"
         r="7.1291666" />
      <circle
         style="display:inline;opacity:1;fill:#26539e;fill-opacity:1;fill-rule:evenodd;stroke-width:0.296314"
         id="path24669-0-6"
         cx="188.49934"
         cy="-18.449261"
         r="3.9124575" />
      <circle
         style="display:inline;opacity:1;fill:#ffffff;fill-opacity:1;fill-rule:evenodd;stroke-width:0.14579"
         id="path24669-0-9-0"
         cx="190.84361"
         cy="-21.057463"
         r="1.9249696" />
    </g>
  </g>
</svg>
