<?xml version="1.0" encoding="UTF-8" standalone="no"?>
<!-- Created with Inkscape (http://www.inkscape.org/) -->

<svg
   width="318.47879mm"
   height="52.890694mm"
   viewBox="0 0 318.47879 52.890694"
   version="1.1"
   id="svg5"
   sodipodi:docname="cranker_logo_master.svg"
   inkscape:version="1.1.2 (0a00cf5339, 2022-02-04)"
   xmlns:inkscape="http://www.inkscape.org/namespaces/inkscape"
   xmlns:sodipodi="http://sodipodi.sourceforge.net/DTD/sodipodi-0.dtd"
   xmlns="http://www.w3.org/2000/svg"
   xmlns:svg="http://www.w3.org/2000/svg">
  <sodipodi:namedview
     id="namedview7"
     pagecolor="#ffffff"
     bordercolor="#666666"
     borderopacity="1.0"
     inkscape:pageshadow="2"
     inkscape:pageopacity="0.0"
     inkscape:pagecheckerboard="0"
     inkscape:document-units="mm"
     showgrid="false"
     inkscape:snap-bbox="false"
     inkscape:snap-global="false"
     showguides="false"
     inkscape:zoom="0.25"
     inkscape:cx="708"
     inkscape:cy="-154"
     inkscape:window-width="1920"
     inkscape:window-height="955"
     inkscape:window-x="0"
     inkscape:window-y="32"
     inkscape:window-maximized="1"
     inkscape:current-layer="text1908"
     inkscape:lockguides="false"
     units="mm"
     fit-margin-top="0"
     fit-margin-left="0"
     fit-margin-right="0"
     fit-margin-bottom="0" />
  <defs
     id="defs2">
    <rect
       x="1676.3518"
       y="167.69092"
       width="1916.775"
       height="267.09424"
       id="rect16589" />
    <rect
       x="-454.78784"
       y="-393.10815"
       width="2111.759"
       height="1264.635"
       id="rect6321" />
  </defs>
  <g
     inkscape:groupmode="layer"
     id="layer12"
     inkscape:label="Font"
     style="display:inline"
     transform="translate(-6.3055785,-15.253299)">
    <g
       aria-label="cranker"
       id="text1908"
       style="font-size:56.4444px;line-height:0;display:inline;fill:#26539e;stroke-width:0.264583">
      <path
         d="m 168.32028,32.610373 q 0,0.02756 0.0276,0.02756 0.79926,0.799261 0.79926,1.956813 0,1.12999 -0.82682,1.956812 -0.79926,0.799262 -1.92925,0.799262 -1.15755,0 -1.95682,-0.826822 h -0.0276 q -2.37022,-2.370224 -5.76019,-2.370224 -3.38997,0 -5.78776,2.397784 -2.39778,2.370224 -2.39778,5.760196 0,3.389971 2.39778,5.787756 2.39779,2.397784 5.78776,2.397784 3.36241,0 5.76019,-2.370224 0.0276,-0.02756 0.0551,-0.05512 0.79927,-0.799262 1.95682,-0.799262 1.15755,0 1.98437,0.826823 0.82682,0.799261 0.82682,1.956812 0,1.157551 -0.82682,1.984374 -0.0276,0.02756 -0.0551,0.05512 -3.99631,3.996308 -9.70138,3.996308 -5.70508,0 -9.72894,-4.023869 -4.02387,-4.023868 -4.02387,-9.728942 0,-5.705073 4.02387,-9.728942 4.02386,-4.023868 9.72894,-4.023868 5.70507,0 9.70138,3.996307 z"
         style="letter-spacing:-1.79652px"
         id="path20093" />
      <path
         d="m 187.11163,28.531383 q 1.15755,0 1.98438,0.826823 0.82682,0.826822 0.82682,1.984373 0,1.157551 -0.82682,1.984374 -0.82683,0.826822 -1.98438,0.826822 h -0.0276 q -3.38997,0 -5.78775,2.397784 -2.20486,2.177299 -2.37023,5.208981 0.0276,0.248046 0.0276,0.496093 V 52.89508 q 0,1.543401 -0.82682,2.370224 -0.82682,0.826822 -1.98437,0.826822 -1.15755,0 -1.98438,-0.826822 -0.82682,-0.826823 -0.82682,-2.425346 V 42.201512 q 0.0551,-5.622392 4.02387,-9.591139 3.80338,-3.803382 9.7565,-4.07899 z"
         style="letter-spacing:-3.53748px"
         id="path20095" />
      <path
         d="m 211.4105,36.551559 q -2.39778,-2.397784 -5.78775,-2.397784 -3.38998,0 -5.78776,2.397784 -2.37022,2.370224 -2.37022,5.760196 0,3.389971 2.37022,5.787756 2.39778,2.397784 5.78776,2.397784 3.38997,0 5.78775,-2.397784 2.0395,-2.039495 2.34266,-4.79557 v -1.047308 q 0,-0.248047 0.0276,-0.496093 -0.16537,-3.031682 -2.37023,-5.208981 z m 7.96506,16.839614 q 0,1.598523 -0.82683,2.149738 -0.82682,0.551215 -1.98437,0.551215 -1.15755,0 -1.98437,-0.551215 -0.82683,-0.551215 -0.82683,-2.094616 -3.52777,2.645831 -8.13041,2.645831 -5.70508,0 -9.72895,-4.023869 -4.02386,-4.023868 -4.02386,-9.728942 0,-5.705073 4.02386,-9.728942 4.02387,-4.023868 9.72895,-4.023868 5.70507,0 9.72894,4.023868 3.96874,3.968747 4.02387,9.591139 z"
         style="letter-spacing:-1.6219px"
         id="path20097" />
      <path
         d="m 237.40447,28.531383 q 5.81532,0.330729 9.56358,4.07899 3.96875,3.968747 4.02387,9.591139 v 10.638446 q 0,1.598523 -0.82682,2.425346 -0.82683,0.826822 -1.98438,0.826822 -1.15755,0 -1.98437,-0.826822 -0.82682,-0.826823 -0.82682,-2.370224 V 42.256633 q 0,-0.248047 0.0276,-0.496093 -0.16537,-3.031682 -2.37023,-5.208981 -2.39778,-2.397784 -5.78775,-2.397784 h -0.11025 q -3.38997,0 -5.78775,2.397784 -2.20486,2.177299 -2.37023,5.208981 0.0276,0.248046 0.0276,0.496093 V 52.89508 q 0,1.543401 -0.82683,2.370224 -0.82682,0.826822 -1.98437,0.826822 -1.15755,0 -1.98437,-0.826822 -0.82683,-0.826823 -0.82683,-2.425346 V 42.201512 q 0.0551,-5.622392 4.02387,-9.591139 3.74826,-3.748261 9.56358,-4.07899 z"
         style="letter-spacing:-0.915458px;word-spacing:-3.26231px;direction:rtl"
         id="path20099" />
      <path
         d="m 261.211,45.977333 v 7.303597 q 0,1.157551 -0.82682,1.984374 -0.82682,0.826822 -1.98438,0.826822 -1.15755,0 -1.98437,-0.826822 -0.82682,-0.826823 -0.82682,-1.984374 V 23.239721 q 0,-1.157551 0.82682,-1.984374 0.82682,-0.826822 1.98437,-0.826822 1.15756,0 1.98438,0.826822 0.82682,0.826823 0.82682,1.984374 v 15.434016 l 11.9338,-9.536017 q 0.74414,-0.606337 1.73633,-0.606337 1.15755,0 1.95681,0.826823 0.79926,0.799261 0.79926,1.929252 0,1.157551 -0.79926,1.956812 -0.24805,0.248047 -0.52365,0.413411 l -10.74869,8.598952 11.13454,8.90212 -0.0551,0.05512 q 0.11024,0.08268 0.19292,0.165365 0.79926,0.826822 0.79926,1.956813 0,1.157551 -0.79926,1.956812 -0.79926,0.799262 -1.95681,0.799262 -0.96463,0 -1.68121,-0.578776 l -0.0276,0.02756 z"
         style="letter-spacing:-2.26219px"
         id="path20101" />
      <path
         d="m 297.91969,34.842793 q -1.51584,-0.689018 -3.33485,-0.689018 -3.38997,0 -5.78775,2.397784 -2.39779,2.370224 -2.39779,5.760196 0,3.389971 2.39779,5.787756 2.39778,2.397784 5.78775,2.397784 3.36241,0 5.7602,-2.370224 0.0276,-0.02756 0.0551,-0.05512 0.79926,-0.799262 1.95681,-0.799262 1.15755,0 1.98438,0.826823 0.82682,0.799261 0.82682,1.956812 0,1.157551 -0.82682,1.984374 -0.0276,0.02756 -0.0551,0.05512 -3.9963,3.996308 -9.70138,3.996308 -5.70507,0 -9.72894,-4.023869 -4.02387,-4.023868 -4.02387,-9.728942 0,-5.705073 4.02387,-9.728942 4.02387,-4.023868 9.72894,-4.023868 5.70508,0 9.70138,3.996307 l -0.0276,0.02756 q 0,0.02756 0.0276,0.02756 0.79927,0.799261 0.79927,1.956813 0,1.12999 -0.79927,1.929252 l -7.88237,7.827251 q -0.82682,0.799261 -1.98437,0.799261 -1.18511,0 -2.01194,-0.799261 -0.79926,-0.826823 -0.79926,-2.011935 0,-1.157551 0.79926,-1.984373 z"
         style="letter-spacing:-2.87337px"
         id="path20103" />
      <path
         d="m 321.97317,28.531383 q 1.15755,0 1.98437,0.826823 0.82682,0.826822 0.82682,1.984373 0,1.157551 -0.82682,1.984374 -0.82682,0.826822 -1.98437,0.826822 h -0.0276 q -3.38997,0 -5.78776,2.397784 -2.20486,2.177299 -2.37022,5.208981 0.0276,0.248046 0.0276,0.496093 V 52.89508 q 0,1.543401 -0.82682,2.370224 -0.82683,0.826822 -1.98438,0.826822 -1.15755,0 -1.98437,-0.826822 -0.82682,-0.826823 -0.82682,-2.425346 V 42.201512 q 0.0551,-5.622392 4.02386,-9.591139 3.80339,-3.803382 9.75651,-4.07899 z"
         style="font-family:'Neon 80s';-inkscape-font-specification:'Neon 80s'"
         id="path20105" />
    </g>
    <text
       xml:space="preserve"
       transform="matrix(0.26458333,0,0,0.26458333,6.3055785,15.253299)"
       id="text6319"
       style="fill:black;fill-opacity:1;line-height:1.25;stroke:none;font-family:sans-serif;font-style:normal;font-weight:normal;font-size:40px;white-space:pre;shape-inside:url(#rect6321)" />
    <text
       xml:space="preserve"
       transform="matrix(0.26458333,0,0,0.26458333,6.3055785,15.253299)"
       id="text16587"
       style="fill:black;fill-opacity:1;line-height:1.25;stroke:none;font-family:sans-serif;font-style:normal;font-weight:normal;font-size:40px;white-space:pre;shape-inside:url(#rect16589)" />
  </g>
  <g
     inkscape:groupmode="layer"
     id="layer13"
     inkscape:label="Font 1"
     transform="translate(-6.3055785,-15.253299)" />
  <g
     inkscape:groupmode="layer"
     id="layer11"
     inkscape:label="クランクベイト"
     style="display:inline"
     transform="translate(-6.3055785,-15.253299)">
    <g
       inkscape:groupmode="layer"
       id="layer9"
       inkscape:label="リング_1"
       style="display:inline">
      <path
         style="fill:none;stroke:#6d6a69;stroke-width:1.663;stroke-linecap:butt;stroke-linejoin:miter;stroke-miterlimit:4;stroke-dasharray:none;stroke-opacity:1"
         d="m 57.819984,59.620216 c -1.194658,1.60596 -0.479224,2.89171 0.317139,3.98873 0.796363,1.09702 2.548055,1.57264 3.815195,1.58747 1.26714,0.0148 2.314259,-0.46844 2.97355,-0.79023 2.56987,-1.2996 2.312292,-5.26988 0.72247,-6.4733 -1.657066,-1.1692 -6.633696,0.0814 -7.828354,1.68733 z"
         id="path58612"
         sodipodi:nodetypes="zzzccz" />
    </g>
    <g
       inkscape:groupmode="layer"
       id="layer10"
       inkscape:label="リップ"
       style="display:inline">
      <path
         style="fill:none;stroke:#6d6a69;stroke-width:1.765;stroke-linecap:round;stroke-linejoin:miter;stroke-miterlimit:4;stroke-dasharray:none;stroke-opacity:1"
         d="m 28.608892,48.075766 c 0,0 -1.655907,1.06145 -4.101013,2.87354 -2.276135,1.68686 -5.255209,4.05801 -7.722233,5.94691 -2.012502,1.54089 -3.73014,2.8712 -4.920069,3.77921 -3.5750249,2.72803 -4.0697179,3.61471 -4.4367899,4.08089 -0.367072,0.46618 -0.352796,1.19559 0.185514,1.72711 3.6751579,2.37959 8.6359769,-1.28076 11.5278869,-2.81697 2.386409,-1.35465 5.975375,-3.82765 7.889226,-5.11682 1.913851,-1.28917 2.653804,-1.88046 3.628178,-2.33407 0.974374,-0.45361 2.552443,-0.3768 2.552443,-0.3768 l 1.783683,-0.0321"
         id="path93392"
         sodipodi:nodetypes="cssszcczzcc" />
    </g>
    <g
       inkscape:groupmode="layer"
       id="g60936"
       inkscape:label="リング"
       style="display:inline">
      <path
         style="fill:none;stroke:#6d6a69;stroke-width:1.663;stroke-linecap:butt;stroke-linejoin:miter;stroke-miterlimit:4;stroke-dasharray:none;stroke-opacity:1"
         d="m 19.998045,42.585066 c -0.811226,1.67364 -0.713902,2.89358 0.08246,3.9906 0.796363,1.09702 2.548055,1.57264 3.8152,1.58747 1.26714,0.0148 2.31425,-0.46844 2.97355,-0.79023 2.56987,-1.2996 2.31229,-5.26988 0.72247,-6.4733 -1.137622,-0.80269 -3.839815,-0.46488 -5.808716,0.34542 -0.899017,0.36999 -1.511295,0.77543 -1.784964,1.34004 z"
         id="path60934"
         sodipodi:nodetypes="szzccss" />
      <path
         style="fill:none;stroke:#6d6a69;stroke-width:1.663;stroke-linecap:butt;stroke-linejoin:miter;stroke-miterlimit:4;stroke-dasharray:none;stroke-opacity:1"
         d="m 127.25034,35.193286 c -0.81122,1.67364 -0.7139,2.89358 0.0825,3.9906 0.79636,1.09702 2.54806,1.57264 3.8152,1.58747 1.26714,0.0148 2.31425,-0.46844 2.97355,-0.79023 2.56987,-1.2996 2.31229,-5.26988 0.72247,-6.4733 -1.13762,-0.80269 -3.83981,-0.46488 -5.80871,0.34542 -0.89902,0.36999 -1.5113,0.77543 -1.78497,1.34004 z"
         id="path60934-6"
         sodipodi:nodetypes="szzccss" />
    </g>
    <g
       inkscape:groupmode="layer"
       id="layer4"
       inkscape:label="ボティ"
       style="display:inline">
      <g
         id="path85"
         transform="translate(-20.815262,-99.406474)">
        <path
           style="color:#000000;fill:#1496ea;stroke-width:2.165;stroke-miterlimit:4;stroke-dasharray:none;paint-order:fill markers stroke"
           d="m 52.644028,152.75114 c 0,0 4.77556,3.85417 11.787115,5.30779 5.842731,1.2113 11.680689,1.94445 15.048202,1.81863 8.650852,-0.32322 29.606415,-9.57315 33.825365,-11.94855 2.13699,-1.20319 10.05231,-2.33707 15.92397,-2.72374 7.78694,-0.5128 15.03517,-0.90466 16.83484,-1.3652 3.35087,-0.8575 6.19656,-8.11105 1.77935,-13.3602 -2.4811,-2.94839 -27.46402,-13.1403 -42.71194,-14.4232 -14.157962,-1.19119 -18.970654,0.0158 -22.140005,0.26591 -12.531137,-0.81004 -48.086131,18.66155 -30.346897,36.42856 z"
           id="path85203"
           sodipodi:nodetypes="cssssssscc" />
        <path
           style="color:#000000;fill:#26539e;stroke:none;stroke-width:6.1;stroke-miterlimit:4;stroke-dasharray:none;paint-order:stroke fill markers"
           d="m 96.146484,114.67969 c -7.560327,-0.14942 -10.961696,0.58509 -13.224609,0.76367 -12.157589,1.8492 -22.776079,5.71948 -31.355485,14.58836 -3.708466,3.93841 -5.089019,7.80248 -5.144531,11.19922 -0.111024,6.79348 4.814634,11.45411 5.638672,12.18164 l 0.01367,0.0137 0.01563,0.0117 c 0,0 4.924938,3.98593 12.162109,5.48633 5.887834,1.22065 11.726408,1.96795 15.259766,1.83594 4.612733,-0.17235 11.980901,-2.60117 18.861328,-5.26368 6.880426,-2.6625 13.138186,-5.54493 15.365236,-6.79882 0.76587,-0.43121 3.32336,-1.08771 6.26953,-1.56446 2.94618,-0.47674 6.37397,-0.85555 9.2793,-1.04687 3.89026,-0.25619 7.64827,-0.48282 10.66797,-0.70313 3.0197,-0.22031 5.21086,-0.40159 6.32812,-0.6875 2.19629,-0.56204 3.81316,-2.88651 4.44336,-5.69531 0.6302,-2.8088 0.18867,-6.23866 -2.20898,-9.08789 -0.46439,-0.55185 -1.16088,-1.02121 -2.14649,-1.60547 -0.98561,-0.58426 -2.24502,-1.23832 -3.72656,-1.94141 -2.96307,-1.40618 -6.81468,-3.00406 -11.06836,-4.55078 -8.50735,-3.09343 -18.59271,-5.98227 -26.37109,-6.63672 -3.55606,-0.29919 -6.53849,-0.44824 -9.058599,-0.49804 z m -0.0039,1.76172 c 2.463235,0.0511 5.391146,0.19773 8.914066,0.49414 7.46952,0.62845 17.49967,3.47677 25.91602,6.53711 4.20817,1.53017 8.02048,3.11415 10.91601,4.48828 1.44777,0.68706 2.66693,1.32277 3.58203,1.86523 0.91511,0.54246 1.54138,1.03741 1.69727,1.22266 2.01955,2.39991 2.36395,5.21982 1.83789,7.56445 -0.52606,2.34463 -2.00558,4.07563 -3.16016,4.37109 -0.6824,0.17463 -3.01847,0.41972 -6.01953,0.63868 -3.00106,0.21895 -6.75957,0.44456 -10.65625,0.70117 -2.96632,0.19534 -6.43167,0.57874 -9.44531,1.0664 -3.01364,0.48767 -5.4824,0.99756 -6.85352,1.76954 -1.99189,1.12149 -8.31997,4.05234 -15.134766,6.68945 -6.814791,2.63711 -14.250953,4.99561 -18.289062,5.14648 -3.201662,0.11963 -9.040274,-0.59883 -14.837891,-1.80078 -6.766862,-1.40289 -11.36668,-5.09832 -11.392578,-5.11914 -0.5882,-0.52095 -5.125529,-4.92807 -5.029297,-10.8164 0.04821,-2.95023 1.196727,-6.33525 4.664062,-10.01758 6.218427,-5.70403 12.694111,-9.33232 19.267373,-11.57024 7.95931,-2.70981 16.061686,-3.38107 24.023643,-3.23054 z"
           id="path112242"
           sodipodi:nodetypes="cccscccsssssssssssssscccsssssssssssssscscsc" />
      </g>
      <path
         style="fill:#f5f5f5;fill-opacity:1;stroke:#f5f5f5;stroke-width:3.665;stroke-linecap:round;stroke-linejoin:miter;stroke-miterlimit:4;stroke-dasharray:none;stroke-opacity:1"
         d="m 64.951316,42.140706 c 0,0 0.332325,-9.89517 0.205023,-11.00077 -0.04835,-0.41994 -1.166176,0.29756 -2.442902,1.42439 -2.084609,1.83987 -4.592845,4.77101 -3.561071,5.62409 1.663694,1.37555 5.667427,3.9806 5.667427,3.9806"
         id="path85275"
         sodipodi:nodetypes="csssc" />
    </g>
    <g
       inkscape:groupmode="layer"
       id="layer5"
       inkscape:label="リップ"
       style="display:inline">
      <path
         style="fill:#f5f5f5;fill-opacity:1;stroke:#f5f5f5;stroke-width:0.265;stroke-linecap:round;stroke-linejoin:bevel;stroke-miterlimit:4;stroke-dasharray:none;stroke-opacity:1"
         d="m 33.411783,55.557916 c -1.012052,-0.10573 -2.703382,-0.0216 -3.227684,0.3133 -13.991894,8.93636 -13.067265,8.39807 -16.494131,9.94922 -3.555498,1.60937 -5.2981899,0.60824 -5.5971239,0.227 0,0 -0.416017,-0.48685 -0.349374,-0.71826 0.107704,-0.37398 0.614097,-0.90088 2.3926629,-2.39948 2.468893,-2.08027 13.351311,-10.45445 13.351311,-10.45445 l 3.968976,-3.14991 -0.354513,-1.24739 c 0,0 2.058057,0.17963 3.186791,1.02799 1.128734,0.84836 2.649714,3.50597 3.020943,4.66456 0.371229,1.15859 0.07915,1.74052 0.07915,1.74052"
         id="path3248"
         sodipodi:nodetypes="csscssccczzc" />
    </g>
    <g
       inkscape:groupmode="layer"
       id="layer8"
       inkscape:label="目"
       style="display:inline">
      <circle
         style="display:inline;opacity:1;fill:#ffffff;fill-opacity:1;fill-rule:evenodd;stroke-width:0.391283"
         id="path24669-3"
         cx="38.078476"
         cy="34.449741"
         r="5.1663909" />
      <circle
         style="display:inline;opacity:1;fill:#26539e;fill-opacity:1;fill-rule:evenodd;stroke-width:0.214734"
         id="path24669-0-6"
         cx="38.010403"
         cy="34.420734"
         r="2.8352942" />
      <circle
         style="display:inline;opacity:1;fill:#ffffff;fill-opacity:1;fill-rule:evenodd;stroke-width:0.105652"
         id="path24669-0-9-0"
         cx="39.709244"
         cy="32.530613"
         r="1.3949941" />
    </g>
  </g>
</svg>
